<mxfile host="app.diagrams.net" modified="2024-02-12T22:07:57.869Z" agent="Mozilla/5.0 (Windows NT 10.0; Win64; x64) AppleWebKit/537.36 (KHTML, like Gecko) Chrome/121.0.0.0 Safari/537.36" version="23.1.3" etag="Ubp9-aTV_AcO0JC3Mg4u" type="github">
  <diagram name="PÃ¡gina-1" id="WdbJyoLWGrB3IXJB-2WS">
    <mxGraphModel>
      <root>
        <mxCell id="0" />
        <mxCell id="1" parent="0" />
      </root>
    </mxGraphModel>
  </diagram>
</mxfile>
